Normalized EMG Linear Envelopes
nRows=119
nColumns=4

endheader
time	 med_gas_r	  soleus_r	 tib_ant_r	
3.14919	  0.094987	  0.066286	  0.025987	
3.22077	  0.097725	  0.069385	  0.024284	
3.29234	  0.096064	  0.072149	  0.023643	
3.36391	  0.093021	  0.071824	  0.024367	
3.43548	  0.090320	  0.067811	  0.025977	
3.50706	  0.089921	  0.064709	  0.026622	
3.57863	  0.089687	  0.065933	  0.025525	
3.6502	  0.089474	  0.069634	  0.023667	
3.72177	  0.092266	  0.071525	  0.022089	
3.79335	  0.098131	  0.069860	  0.021507	
3.86492	  0.102448	  0.068774	  0.021304	
3.93649	  0.102565	  0.071356	  0.021013	
4.00806	  0.098818	  0.076156	  0.021103	
4.07964	  0.091620	  0.077062	  0.021495	
4.15121	  0.084983	  0.073107	  0.021655	
4.22278	  0.081535	  0.067563	  0.021461	
4.29435	  0.078818	  0.066417	  0.021350	
4.36593	  0.078457	  0.073776	  0.022306	
4.4375	  0.081450	  0.085848	  0.024429	
4.50907	  0.085983	  0.096052	  0.026497	
4.58065	  0.089817	  0.100654	  0.026768	
4.65222	  0.090628	  0.104102	  0.025569	
4.72379	  0.087528	  0.107860	  0.023283	
4.79536	  0.084284	  0.105256	  0.020659	
4.86694	  0.081576	  0.092769	  0.018313	
4.93851	  0.076318	  0.079573	  0.016994	
5.01008	  0.067937	  0.071607	  0.017468	
5.08165	  0.065731	  0.070662	  0.021154	
5.15323	  0.097592	  0.089876	  0.030467	
5.2248	  0.192826	  0.151962	  0.048815	
5.29637	  0.357861	  0.259917	  0.076804	
5.36794	  0.538296	  0.366130	  0.103416	
5.43952	  0.653352	  0.430285	  0.115618	
5.51109	  0.708047	  0.467985	  0.118280	
5.58266	  0.736557	  0.487845	  0.119905	
5.65423	  0.762361	  0.492679	  0.121604	
5.72581	  0.807523	  0.497960	  0.122576	
5.79738	  0.866968	  0.507722	  0.124156	
5.86895	  0.902279	  0.511091	  0.126931	
5.94052	  0.890015	  0.504979	  0.130008	
6.0121	  0.853210	  0.502460	  0.131334	
6.08367	  0.827458	  0.507329	  0.130798	
6.15524	  0.802056	  0.505866	  0.132462	
6.22681	  0.764698	  0.489753	  0.133000	
6.29839	  0.735216	  0.476271	  0.127974	
6.36996	  0.718568	  0.467068	  0.122261	
6.44153	  0.733901	  0.476826	  0.123610	
6.5131	  0.779839	  0.504713	  0.132787	
6.58468	  0.831798	  0.539252	  0.145981	
6.65625	  0.870710	  0.574975	  0.158632	
6.72782	  0.888519	  0.593783	  0.167312	
6.7994	  0.873973	  0.583778	  0.167470	
6.87097	  0.824103	  0.553443	  0.159366	
6.94254	  0.769209	  0.532074	  0.148128	
7.01411	  0.738722	  0.550258	  0.143004	
7.08569	  0.742138	  0.592031	  0.142010	
7.15726	  0.767363	  0.628603	  0.141611	
7.22883	  0.792698	  0.646501	  0.143447	
7.3004	  0.809284	  0.624346	  0.148773	
7.37198	  0.829120	  0.586403	  0.156468	
7.44355	  0.856717	  0.571528	  0.163522	
7.51512	  0.901741	  0.590523	  0.168188	
7.58669	  0.950441	  0.638331	  0.167534	
7.65827	  0.984100	  0.682160	  0.160517	
7.72984	  0.999768	  0.704806	  0.151441	
7.80141	  0.983696	  0.704723	  0.142334	
7.87298	  0.925056	  0.676657	  0.133891	
7.94456	  0.844273	  0.630439	  0.131089	
8.01613	  0.780062	  0.592407	  0.133918	
8.0877	  0.739082	  0.550196	  0.135790	
8.15927	  0.702389	  0.498366	  0.133442	
8.23085	  0.662030	  0.457008	  0.127158	
8.30242	  0.617150	  0.423922	  0.121486	
8.37399	  0.586707	  0.400781	  0.117935	
8.44556	  0.579920	  0.391553	  0.115268	
8.51714	  0.593406	  0.385662	  0.113415	
8.58871	  0.612264	  0.379393	  0.114340	
8.66028	  0.624851	  0.387869	  0.119438	
8.73185	  0.637945	  0.420550	  0.125049	
8.80343	  0.657763	  0.462006	  0.131483	
8.875	  0.687474	  0.499367	  0.138058	
8.94657	  0.730282	  0.529977	  0.142957	
9.01815	  0.785214	  0.549620	  0.147573	
9.08972	  0.835037	  0.560087	  0.155047	
9.16129	  0.876949	  0.568109	  0.164505	
9.23286	  0.899464	  0.579494	  0.169308	
9.30444	  0.882896	  0.588267	  0.166011	
9.37601	  0.849310	  0.579547	  0.159340	
9.44758	  0.803652	  0.557594	  0.150252	
9.51915	  0.732033	  0.522262	  0.139666	
9.59073	  0.656841	  0.479131	  0.128917	
9.6623	  0.594935	  0.434084	  0.118561	
9.73387	  0.555074	  0.391327	  0.111628	
9.80544	  0.546110	  0.363054	  0.107687	
9.87702	  0.568274	  0.349895	  0.105536	
9.94859	  0.573121	  0.333592	  0.103499	
10.0202	  0.514890	  0.305023	  0.099701	
10.0917	  0.404082	  0.255435	  0.099755	
10.1633	  0.280007	  0.198004	  0.115232	
10.2349	  0.196067	  0.162528	  0.145961	
10.3065	  0.150166	  0.147461	  0.158601	
10.378	  0.125964	  0.134737	  0.141061	
10.4496	  0.121104	  0.122675	  0.121160	
10.5212	  0.127473	  0.112890	  0.109696	
10.5927	  0.130258	  0.106317	  0.108749	
10.6643	  0.129735	  0.103711	  0.112483	
10.7359	  0.131048	  0.102457	  0.107882	
10.8075	  0.131795	  0.100078	  0.097941	
10.879	  0.124386	  0.095960	  0.082856	
10.9506	  0.113601	  0.089668	  0.066419	
11.0222	  0.104590	  0.079819	  0.048947	
11.0937	  0.100337	  0.071390	  0.034481	
11.1653	  0.095884	  0.069157	  0.026290	
11.2369	  0.090766	  0.073485	  0.022918	
11.3085	  0.088120	  0.077317	  0.022206	
11.38	  0.089177	  0.077727	  0.022167	
11.4516	  0.091763	  0.073361	  0.022331	
11.5232	  0.091759	  0.066723	  0.022312	
11.5948	  0.089679	  0.060762	  0.022468	
